<?xml version="1.0" standalone="no"?>
<!DOCTYPE svg PUBLIC "-//W3C//DTD SVG 20010904//EN"
 "http://www.w3.org/TR/2001/REC-SVG-20010904/DTD/svg10.dtd">
<svg version="1.0" xmlns="http://www.w3.org/2000/svg"
 width="1001.000000pt" height="1001.000000pt" viewBox="0 0 1001.000000 1001.000000"
 preserveAspectRatio="xMidYMid meet">
<metadata>
Created by potrace 1.14, written by Peter Selinger 2001-2017
</metadata>
<g transform="translate(0.000000,1001.000000) scale(0.100000,-0.100000)"
fill="#000000" stroke="none">
<path d="M720 9999 c-30 -5 -91 -22 -137 -38 -227 -78 -428 -272 -514 -495
-63 -165 -59 173 -59 -4456 0 -4629 -4 -4291 59 -4456 63 -163 208 -334 360
-424 82 -49 207 -94 301 -109 44 -8 1405 -11 4285 -11 4140 0 4222 1 4314 20
202 41 397 169 517 337 55 76 116 206 140 298 18 68 19 209 19 4345 0 4136 -1
4277 -19 4345 -85 322 -342 570 -657 635 -92 19 -172 20 -4324 19 -2468 -1
-4253 -5 -4285 -10z m8615 -133 c92 -28 194 -78 262 -130 122 -92 226 -250
270 -406 17 -62 18 -246 18 -4320 0 -4074 -1 -4258 -18 -4320 -73 -264 -271
-461 -537 -537 -63 -17 -220 -18 -4325 -18 l-4260 0 -75 23 c-256 80 -431 256
-512 512 l-23 75 0 4265 0 4265 23 75 c89 282 313 483 590 530 26 4 1955 7
4287 6 4076 -1 4242 -2 4300 -20z"/>
<path d="M3160 8489 c-98 -15 -250 -71 -342 -125 -94 -57 -232 -187 -302 -285
-150 -215 -262 -550 -295 -893 -17 -174 -14 -1113 4 -1269 30 -260 88 -472
180 -662 70 -144 123 -223 215 -319 184 -193 402 -290 680 -302 509 -23 875
250 1063 792 98 284 127 542 127 1144 0 511 -19 738 -81 977 -70 272 -185 495
-338 656 -126 132 -297 231 -471 272 -88 21 -340 29 -440 14z m422 -98 c174
-45 315 -128 435 -255 116 -121 203 -272 269 -465 l33 -96 -347 -350 c-781
-788 -1606 -1615 -1608 -1612 -2 1 -14 59 -28 127 -42 212 -48 331 -44 905 5
578 8 616 69 865 68 275 168 476 318 633 142 149 305 233 519 267 90 14 296 4
384 -19z m782 -1026 c33 -186 38 -311 33 -870 -3 -458 -7 -568 -21 -655 -36
-224 -91 -408 -166 -565 -139 -288 -367 -478 -651 -541 -49 -11 -120 -17 -209
-17 -209 0 -357 42 -515 148 -182 121 -316 304 -416 568 l-33 88 410 412
c1307 1315 1539 1546 1545 1534 4 -6 14 -52 23 -102z"/>
<path d="M5488 7383 c11 -16 252 -318 536 -673 284 -355 516 -648 516 -652 0
-4 -251 -321 -559 -706 -307 -385 -562 -705 -565 -711 -5 -7 11 -11 47 -11
l55 0 540 675 540 675 542 -675 542 -675 55 0 c43 0 53 3 46 13 -6 6 -261 326
-567 709 -306 384 -556 702 -556 707 0 5 241 309 535 677 l535 669 -56 3 c-31
2 -57 2 -59 0 -1 -2 -228 -286 -505 -633 -276 -346 -505 -631 -508 -632 -4 -1
-234 283 -512 632 l-505 634 -58 0 -58 1 19 -27z"/>
<path d="M7970 7395 c0 -11 12 -15 50 -15 l50 0 0 -145 c0 -122 2 -145 15
-145 13 0 15 23 15 145 l0 145 50 0 c38 0 50 4 50 15 0 12 -19 15 -115 15 -96
0 -115 -3 -115 -15z"/>
<path d="M8260 7250 c0 -136 2 -160 15 -160 13 0 15 21 16 128 l0 127 47 -127
c64 -177 63 -177 143 40 12 31 25 61 30 67 5 5 9 -43 9 -113 0 -102 2 -122 15
-122 13 0 15 24 15 160 0 159 0 160 -23 160 -19 0 -29 -17 -74 -132 l-51 -133
-15 35 c-8 19 -31 79 -51 133 -30 76 -42 97 -57 97 -18 0 -19 -9 -19 -160z"/>
<path d="M2645 2773 c-230 -340 -420 -628 -423 -640 l-4 -23 428 -2 429 -3 3
-242 2 -243 35 0 35 0 0 245 0 245 150 0 150 0 0 30 0 30 -150 0 -150 0 0 610
0 610 -44 0 -44 0 -417 -617z m435 -38 l0 -565 -375 0 c-206 0 -375 2 -375 4
0 3 150 229 333 503 184 274 350 526 371 561 21 34 39 62 42 62 2 0 4 -254 4
-565z"/>
<path d="M4140 2774 c-228 -339 -416 -626 -418 -640 l-3 -24 425 0 426 0 0
-245 0 -245 35 0 35 0 2 243 3 242 153 3 152 3 0 29 0 30 -155 0 -155 0 0 610
0 610 -42 0 -43 -1 -415 -615z m430 -39 l0 -565 -375 0 -376 0 344 513 c189
281 357 536 373 564 16 29 30 53 32 53 1 0 2 -254 2 -565z"/>
<path d="M5635 2773 c-230 -340 -420 -628 -423 -640 l-4 -23 428 -2 429 -3 3
-242 2 -243 35 0 35 0 0 245 0 245 150 0 150 0 0 30 0 30 -150 0 -150 0 0 610
0 610 -44 0 -44 0 -417 -617z m435 -38 l0 -565 -375 0 c-206 0 -375 2 -375 4
0 3 150 229 333 503 184 274 351 526 372 561 21 34 39 62 41 62 2 0 4 -254 4
-565z"/>
<path d="M6760 3360 l0 -30 526 0 c514 0 525 0 519 -19 -3 -11 -174 -392 -380
-847 -206 -455 -375 -832 -375 -837 0 -4 15 -7 32 -5 l33 3 387 860 c214 472
388 870 388 882 l0 23 -565 0 -565 0 0 -30z"/>
</g>
</svg>
