<svg id="Layer_1" data-name="Layer 1" xmlns="http://www.w3.org/2000/svg" xmlns:xlink="http://www.w3.org/1999/xlink" viewBox="0 0 800 236"><defs><style>.cls-1{fill:#27303b;}.cls-2{fill:#fff;}</style><symbol id="New_Symbol_1" data-name="New Symbol 1" viewBox="0 0 29.09 16.07"><path class="cls-1" d="M11.85,1.71H6.76V16.07H5.09V1.71H0V0H11.85ZM27.44,3l-4.9,13.08H21L16.07,2.57v13.5H14.42V0h2.07l5.27,13.74L27,0h2.07V16.07H27.44Z"/></symbol></defs><title>Logo 16x9 White 8px</title><rect class="cls-2" x="3" y="3" width="794" height="230" rx="40"/><path class="cls-1" d="M757,236H43A43,43,0,0,1,0,193V43A43,43,0,0,1,43,0H757a43,43,0,0,1,43,43V193A43,43,0,0,1,757,236ZM43,6A37,37,0,0,0,6,43V193a37,37,0,0,0,37,37H757a37,37,0,0,0,37-37V43A37,37,0,0,0,757,6Z"/><use width="29.09" height="16.07" transform="translate(737.31 54.59)" xlink:href="#New_Symbol_1"/><path class="cls-1" d="M123.33,188.42A36.17,36.17,0,0,1,110,186.1a34.57,34.57,0,0,1-10.31-6.32,39,39,0,0,1-7.59-9.39A57.14,57.14,0,0,1,87,158.8,80.14,80.14,0,0,1,84.08,146a92.91,92.91,0,0,1-1-13.1V108.28a95.34,95.34,0,0,1,.91-13A77.77,77.77,0,0,1,86.9,82.42,57.74,57.74,0,0,1,92,70.79a39.32,39.32,0,0,1,7.5-9.44A33.23,33.23,0,0,1,109.73,55a36.17,36.17,0,0,1,13.41-2.33A36.23,36.23,0,0,1,136.56,55a33.8,33.8,0,0,1,10.26,6.31,39.05,39.05,0,0,1,7.5,9.39,60.3,60.3,0,0,1,5.11,11.64,72.2,72.2,0,0,1,2.86,12.84,113.4,113.4,0,0,1,1,13.13v24.59a113.22,113.22,0,0,1-1,13.11,74.51,74.51,0,0,1-2.81,12.8,61,61,0,0,1-5,11.59,37.56,37.56,0,0,1-7.45,9.39,33.71,33.71,0,0,1-10.26,6.32A36.42,36.42,0,0,1,123.33,188.42ZM89.87,157.08l.15.49a56.61,56.61,0,0,0,4.57,10.57,35.89,35.89,0,0,0,6.86,8.79,31,31,0,0,0,9.48,6,35.57,35.57,0,0,0,25-.09,30.74,30.74,0,0,0,9.57-6.23,36.14,36.14,0,0,0,6.82-9.11,57.24,57.24,0,0,0,4.43-11,78,78,0,0,0,2.41-11.93,114.36,114.36,0,0,0,.83-11.84V108.28c-.06-3-.23-6-.51-9a81.86,81.86,0,0,0-1.34-9.14l-.32-1.54ZM123.14,55.94a32.81,32.81,0,0,0-12.62,2.27,30.94,30.94,0,0,0-9.58,6.18,35.4,35.4,0,0,0-6.86,9.12,56.64,56.64,0,0,0-4.43,11,79.85,79.85,0,0,0-2.46,11.93,93.56,93.56,0,0,0-.79,11.85v24.43a95.19,95.19,0,0,0,.51,9.77,73.37,73.37,0,0,0,1.72,9.89l.36,1.46L157,85.3l-.13-.47a55.59,55.59,0,0,0-4.48-11.09,37.19,37.19,0,0,0-6.9-9.21,31.1,31.1,0,0,0-9.62-6.28A32.88,32.88,0,0,0,123.14,55.94Z"/><polygon class="cls-1" points="274.76 186.59 236.89 139.44 199.22 186.59 194.85 186.59 234.85 136.47 196.87 88.93 201.33 88.93 236.99 133.5 272.56 88.93 277.02 88.93 239.03 136.47 279.04 186.59 274.76 186.59"/><path class="cls-1" d="M366.36,186.59V150.14H301.55v-1.66L365,54.59h4.68v92.27h23.14v3.28H369.64v36.45ZM357.09,72l-50.25,74.91h59.52V56.72Z"/><path class="cls-1" d="M479.2,186.59V150.14H414.38v-1.66L477.8,54.59h4.68v92.27h23.13v3.28H482.48v36.45ZM469.93,72l-50.25,74.91H479.2V56.72Z"/><path class="cls-1" d="M592,186.59V150.14H527.22v-1.66l63.41-93.89h4.68v92.27h23.14v3.28H595.31v36.45ZM582.77,72l-50.26,74.91H592V56.72Z"/><polygon class="cls-1" points="666.13 186.59 724.34 57.87 644.18 57.87 644.18 54.59 727.89 54.59 727.89 56.69 669.34 186.59 666.13 186.59"/></svg>